<svg width="54" height="54" viewBox="0 0 54 54" fill="none" xmlns="http://www.w3.org/2000/svg">
<path d="M29.3051 9.24738L31.3565 7.19598C35.3849 3.16758 41.9432 3.06787 45.9948 7.07306C47.53 8.59408 48.5503 10.5578 48.9122 12.6884C49.2741 14.819 48.9594 17.0094 48.0125 18.952C47.5582 19.88 47.4053 20.9266 47.5746 21.9458C47.7442 22.9649 48.2277 23.9057 48.9578 24.6367C50.3005 23.291 51.3645 21.6939 52.0897 19.9368C52.8148 18.1797 53.1867 16.297 53.1841 14.3961C53.1812 12.4953 52.8042 10.6136 52.0741 8.85852C51.344 7.10345 50.2751 5.50945 48.9288 4.16756C43.2634 -1.46592 34.0674 -1.35382 28.4178 4.29549L8.86453 23.8482L7.25707 22.2408C3.16035 18.144 3.13424 11.4475 7.30323 7.42362C8.84641 5.93874 10.8124 4.96941 12.93 4.64945C15.0475 4.32949 17.2122 4.67467 19.1252 5.63732C19.9983 6.08477 20.9906 6.24483 21.9601 6.09466C22.9297 5.94449 23.827 5.49177 24.5239 4.80115L24.5738 4.75156C24.5893 4.73616 24.6016 4.71782 24.61 4.69762C24.6184 4.67744 24.6227 4.65578 24.6227 4.63392C24.6227 4.61205 24.6184 4.59039 24.61 4.57021C24.6016 4.55004 24.5893 4.5317 24.5738 4.51627C21.8825 1.89265 18.2761 0.418965 14.5177 0.40705C10.7592 0.395138 7.14352 1.84593 4.43571 4.45244C-1.3972 10.0833 -1.37635 19.4468 4.35658 25.1798L23.904 44.7272L21.8276 46.8037C17.7992 50.8321 11.2406 50.9318 7.18928 46.9266C5.65407 45.4057 4.63386 43.4419 4.27193 41.3113C3.91003 39.1808 4.22456 36.9904 5.17139 35.0477C5.62564 34.1197 5.77873 33.073 5.60931 32.0541C5.43986 31.0348 4.95633 30.0939 4.22627 29.363C2.88373 30.7088 1.81948 32.3057 1.09433 34.0627C0.369169 35.82 -0.00267999 37.7026 1.45396e-05 39.6036C0.00270907 41.5044 0.379894 43.3862 1.11003 45.1411C1.84017 46.8963 2.90894 48.4903 4.25529 49.8321C9.92043 55.4659 19.1168 55.354 24.7663 49.7044L44.3449 30.1256L45.9584 31.7391C49.9868 35.7675 50.0865 42.3258 46.0814 46.3772C44.5604 47.9126 42.5966 48.9326 40.4661 49.2948C38.3355 49.6567 36.1451 49.342 34.2024 48.3951C33.2742 47.9406 32.227 47.7873 31.2075 47.9572C30.188 48.1268 29.2468 48.6108 28.5159 49.3415C29.8617 50.6841 31.4586 51.7485 33.2156 52.4736C34.9729 53.1987 36.8555 53.5706 38.7565 53.568C40.6573 53.5651 42.5391 53.1879 44.294 52.4578C46.0492 51.7276 47.6432 50.6588 48.985 49.3125C54.6188 43.6473 54.5067 34.451 48.8573 28.8017L29.3051 9.24738ZM26.823 41.807L11.7843 26.7682L26.3851 12.1677L41.4238 27.2064L26.823 41.807Z" fill="#18CDCA"/>
</svg>
